DBRep_DrawableShape

CASCADE Topology V3, (c) Open Cascade
Locations 0
Curve2ds 36
1 0 0 1 0 
1 0 0 1 0 
1 35 0 0 -1 
1 0 0 0 1 
1 0 -55 1 0 
1 0 0 1 0 
1 0 0 0 -1 
1 0 0 0 1 
1 0 0 1 0 
1 0 80 1 0 
1 35 0 0 -1 
1 80 0 0 1 
1 0 -55 1 0 
1 0 80 1 0 
1 0 0 0 -1 
1 80 0 0 1 
1 0 0 0 1 
1 0 0 1 0 
1 35 0 0 1 
1 0 0 1 0 
1 0 0 0 1 
1 0 55 1 0 
1 35 0 0 1 
1 0 55 1 0 
1 0 70 1 0 
1 6.2831853071795862 -0 0 1 
1 0 -0 0 1 
1 0 0 1 0 
1 0 1.5707963267948966 1 0 
1 6.2831853071795862 -6.2831853071795862 0 1 
1 0 -6.2831853071795862 0 1 
1 0 -1.5707963267948966 1 0 
1 0 0 1 0 
1 0 6.2831853071795862 1 0 
1 6.2831853071795862 -0 0 1 
1 0 -0 0 1 
Curves 18
1 0 0 0 0 0 1 
1 0 0 35 -0 1 0 
1 0 55 0 0 0 1 
1 0 0 0 -0 1 0 
1 80 0 0 0 0 1 
1 80 0 35 -0 1 0 
1 80 55 0 0 0 1 
1 80 0 0 -0 1 0 
1 0 0 0 1 0 -0 
1 0 0 35 1 0 -0 
1 0 55 0 1 0 -0 
1 0 55 35 1 0 -0 
2 105 0 70 0 -0 1 0.97437006478523525 0.224951054343865 0 -0.224951054343865 0.97437006478523525 0 22
1 126.43614142527517 4.9489231955650244 0 0 0 1 
2 105 0 0 0 -0 1 0.97437006478523525 0.224951054343865 0 -0.224951054343865 0.97437006478523525 0 22
2 0 100 0 0.43837114678907718 -0.89879404629916715 0 0.89879404629916715 0.43837114678907718 0 0 0 1 31
2 105 100 -2.9391523179536475e-15 0 -0 1 0.7771459614569709 0.62932039104983739 0 -0.62932039104983739 0.7771459614569709 0 54
2 137.64013038119279 126.43145642409317 0 0.62932039104983728 -0.77714596145697112 0 0.77714596145697112 0.62932039104983728 0 0 0 1 12
Polygon3D 0
PolygonOnTriangulations 0
Surfaces 12
1 0 0 0 1 0 -0 0 0 1 0 -1 0 
1 0 0 0 -0 1 0 0 0 1 1 0 -0 
1 0 0 35 0 0 1 1 0 -0 -0 1 0 
1 0 55 0 -0 1 0 0 0 1 1 0 -0 
1 0 0 0 0 0 1 1 0 -0 -0 1 0 
1 80 0 0 1 0 -0 0 0 1 0 -1 0 
2 105 0 0 0 0 1 0.97437006478523525 0.224951054343865 0 -0.224951054343865 0.97437006478523525 0 22
1 105 0 70 0 0 1 0.97437006478523525 0.224951054343865 0 -0.224951054343865 0.97437006478523525 0 
1 105 0 0 0 0 1 0.97437006478523525 0.224951054343865 0 -0.224951054343865 0.97437006478523525 0 
4 0 100 0 0 0 1 0.89879404629916704 0.4383711467890774 0 -0.4383711467890774 0.89879404629916704 0 31
4 0 0 0 0 0 1 1 0 -0 -0 1 0 31
5 105 100 0 0 0 1 0.7771459614569709 0.62932039104983739 0 -0.62932039104983739 0.7771459614569709 0 42 12
Triangulations 0

TShapes 64
Ve
1e-07
0 0 35
0 0

0101101
*
Ve
1e-07
0 0 0
0 0

0101101
*
Ed
 1e-07 1 1 0
1  1 0 0 35
2  1 1 0 0 35
2  2 2 0 0 35
0

0101000
-64 0 +63 0 *
Ve
1e-07
0 55 35
0 0

0101101
*
Ed
 1e-07 1 1 0
1  2 0 0 55
2  3 1 0 0 55
2  4 3 0 0 55
0

0101000
-61 0 +64 0 *
Ve
1e-07
0 55 0
0 0

0101101
*
Ed
 1e-07 1 1 0
1  3 0 0 35
2  5 1 0 0 35
2  6 4 0 0 35
0

0101000
-61 0 +59 0 *
Ed
 1e-07 1 1 0
1  4 0 0 55
2  7 1 0 0 55
2  8 5 0 0 55
0

0101000
-59 0 +63 0 *
Wi

0101100
-62 0 -60 0 +58 0 +57 0 *
Fa
0  1e-07 1 0

0111000
+56 0 *
Ve
1e-07
80 0 35
0 0

0101101
*
Ve
1e-07
80 0 0
0 0

0101101
*
Ed
 1e-07 1 1 0
1  5 0 0 35
2  9 6 0 0 35
2  10 2 0 0 35
0

0101000
-54 0 +53 0 *
Ve
1e-07
80 55 35
0 0

0101101
*
Ed
 1e-07 1 1 0
1  6 0 0 55
2  11 6 0 0 55
2  12 3 0 0 55
0

0101000
-51 0 +54 0 *
Ve
1e-07
80 55 0
0 0

0101101
*
Ed
 1e-07 1 1 0
1  7 0 0 35
2  13 6 0 0 35
2  14 4 0 0 35
0

0101000
-51 0 +49 0 *
Ed
 1e-07 1 1 0
1  8 0 0 55
2  15 6 0 0 55
2  16 5 0 0 55
0

0101000
-49 0 +53 0 *
Wi

0101100
-52 0 -50 0 +48 0 +47 0 *
Fa
0  1e-07 6 0

0111000
+46 0 *
Ed
 1e-07 1 1 0
1  9 0 0 80
2  17 2 0 0 80
2  18 5 0 0 80
0

0101000
-53 0 +63 0 *
Ed
 1e-07 1 1 0
1  10 0 0 80
2  19 2 0 0 80
2  20 3 0 0 80
0

0101000
-54 0 +64 0 *
Wi

0101100
-44 0 -52 0 +43 0 +62 0 *
Fa
0  1e-07 2 0

0111000
+42 0 *
Ed
 1e-07 1 1 0
1  11 0 0 80
2  21 4 0 0 80
2  22 5 0 0 80
0

0101000
-49 0 +59 0 *
Ed
 1e-07 1 1 0
1  12 0 0 80
2  23 4 0 0 80
2  24 3 0 0 80
0

0101000
-51 0 +61 0 *
Wi

0101100
-40 0 -48 0 +39 0 +58 0 *
Fa
0  1e-07 4 0

0111000
+38 0 *
Wi

0101100
-57 0 -40 0 +47 0 +44 0 *
Fa
0  1e-07 5 0

0111000
+36 0 *
Wi

0101100
-60 0 -39 0 +50 0 +43 0 *
Fa
0  1e-07 3 0

0111000
+34 0 *
Sh

0101100
-55 0 +45 0 -41 0 +37 0 -35 0 +33 0 *
So

0100000
+32 0 *
Ve
1e-07
126.436141425275 4.94892319556502 70
0 0

0101101
*
Ed
 1e-07 1 1 0
1  13 0 0 6.28318530717959
2  25 7 0 0 6.28318530717959
0

0101000
+30 0 -30 0 *
Ve
1e-07
126.436141425275 4.94892319556502 0
0 0

0101101
*
Ed
 1e-07 1 1 0
1  14 0 0 70
3  26 27CN 7 0 0 70
0

0101000
-30 0 +28 0 *
Ed
 1e-07 1 1 0
1  15 0 0 6.28318530717959
2  28 7 0 0 6.28318530717959
0

0101000
+28 0 -28 0 *
Wi

0101100
-29 0 +27 0 +26 0 -27 0 *
Fa
0  1e-07 7 0

0111000
+25 0 *
Wi

0101100
+29 0 *
Fa
0  1e-07 8 0

0111000
+23 0 *
Wi

0101100
-26 0 *
Fa
0  1e-07 9 0

0111000
-21 0 *
Sh

0101100
+24 0 +22 0 -20 0 *
So

0100000
+19 0 *
Ve
1e-07
1.70609314043411e-15 100 31
0 0

0101101
*
Ed
 1e-07 1 1 1
2  29 11 0 0 6.28318530717959
2  29 10 0 0 6.28318530717959
0

0101000
+17 0 -17 0 *
Ve
1e-07
1.70609314043411e-15 100 -31
0 0

0101101
*
Ed
 1e-07 1 1 0
1  16 0 4.71238898038469 7.85398163397448
3  30 31CN 10 0 4.71238898038469 7.85398163397448
0

0101000
-17 0 +15 0 *
Ed
 1e-07 1 1 1
2  32 11 0 0 6.28318530717959
2  32 10 0 0 6.28318530717959
0

0101000
+15 0 -15 0 *
Wi

0101100
-16 0 +14 0 +13 0 -14 0 *
Fa
0  1e-07 10 0

0111000
+12 0 *
Sh

0101100
+11 0 *
So

0100000
+10 0 *
Ve
1e-07
146.965881918676 133.983301116691 -2.93915231795365e-15
0 0

0101101
*
Ed
 1e-07 1 1 0
1  17 0 0 6.28318530717959
3  33 34CN 12 0 0 6.28318530717959
0

0101000
+8 0 -8 0 *
Ed
 1e-07 1 1 0
1  18 0 0 6.28318530717959
3  35 36CN 12 0 0 6.28318530717959
0

0101000
+8 0 -8 0 *
Wi

0101100
-7 0 +6 0 +7 0 -6 0 *
Fa
0  1e-07 12 0

0111000
+5 0 *
Sh

0101100
+4 0 *
So

0100000
+3 0 *
Co

1100000
+31 0 +18 0 +9 0 +2 0 *

+1 0 